MetaMessage('track_name', name='Piano', time=0)
MetaMessage('time_signature', numerator=4, denominator=4, clocks_per_click=24, notated_32nd_notes_per_beat=8, time=0)
MetaMessage('key_signature', key='C', time=0)
MetaMessage('set_tempo', tempo=461538, time=0)
control_change channel=0 control=121 value=0 time=0
control_change channel=0 control=100 value=0 time=0
control_change channel=0 control=101 value=0 time=0
control_change channel=0 control=6 value=12 time=0
control_change channel=0 control=100 value=127 time=0
control_change channel=0 control=101 value=127 time=0
program_change channel=0 program=0 time=0
control_change channel=0 control=7 value=100 time=0
control_change channel=0 control=10 value=64 time=0
control_change channel=0 control=91 value=0 time=0
control_change channel=0 control=93 value=0 time=0
MetaMessage('midi_port', port=0, time=0)
note_on channel=0 note=70 velocity=80 time=0
note_on channel=0 note=70 velocity=0 time=479
note_on channel=0 note=67 velocity=80 time=1
note_on channel=0 note=67 velocity=0 time=479
note_on channel=0 note=70 velocity=80 time=1
note_on channel=0 note=70 velocity=0 time=239
note_on channel=0 note=69 velocity=80 time=1
note_on channel=0 note=69 velocity=0 time=239
note_on channel=0 note=70 velocity=80 time=1
note_on channel=0 note=70 velocity=0 time=239
note_on channel=0 note=72 velocity=80 time=1
note_on channel=0 note=72 velocity=0 time=239
note_on channel=0 note=74 velocity=80 time=1
note_on channel=0 note=74 velocity=0 time=719
note_on channel=0 note=70 velocity=80 time=1
note_on channel=0 note=70 velocity=0 time=239
note_on channel=0 note=74 velocity=80 time=1
note_on channel=0 note=74 velocity=0 time=719
note_on channel=0 note=69 velocity=80 time=1
note_on channel=0 note=69 velocity=0 time=239
note_on channel=0 note=74 velocity=80 time=1
note_on channel=0 note=74 velocity=0 time=719
note_on channel=0 note=67 velocity=80 time=1
note_on channel=0 note=67 velocity=0 time=239
note_on channel=0 note=75 velocity=80 time=1
note_on channel=0 note=75 velocity=0 time=239
note_on channel=0 note=74 velocity=80 time=1
note_on channel=0 note=74 velocity=0 time=239
note_on channel=0 note=72 velocity=80 time=1
note_on channel=0 note=72 velocity=0 time=239
note_on channel=0 note=70 velocity=80 time=1
note_on channel=0 note=70 velocity=0 time=239
note_on channel=0 note=72 velocity=80 time=1
note_on channel=0 note=72 velocity=0 time=479
note_on channel=0 note=69 velocity=80 time=1
note_on channel=0 note=69 velocity=0 time=479
note_on channel=0 note=72 velocity=80 time=1
note_on channel=0 note=72 velocity=0 time=239
note_on channel=0 note=70 velocity=80 time=1
note_on channel=0 note=70 velocity=0 time=239
note_on channel=0 note=72 velocity=80 time=1
note_on channel=0 note=72 velocity=0 time=239
note_on channel=0 note=74 velocity=80 time=1
note_on channel=0 note=74 velocity=0 time=239
note_on channel=0 note=75 velocity=80 time=1
note_on channel=0 note=75 velocity=0 time=719
note_on channel=0 note=70 velocity=80 time=1
note_on channel=0 note=70 velocity=0 time=239
note_on channel=0 note=75 velocity=80 time=1
note_on channel=0 note=75 velocity=0 time=719
note_on channel=0 note=69 velocity=80 time=1
note_on channel=0 note=69 velocity=0 time=239
note_on channel=0 note=75 velocity=80 time=1
note_on channel=0 note=75 velocity=0 time=719
note_on channel=0 note=67 velocity=80 time=1
note_on channel=0 note=67 velocity=0 time=239
note_on channel=0 note=77 velocity=80 time=1
note_on channel=0 note=77 velocity=0 time=239
note_on channel=0 note=75 velocity=80 time=1
note_on channel=0 note=75 velocity=0 time=239
note_on channel=0 note=74 velocity=80 time=1
note_on channel=0 note=74 velocity=0 time=239
note_on channel=0 note=72 velocity=80 time=1
note_on channel=0 note=72 velocity=0 time=239
note_on channel=0 note=74 velocity=80 time=1
note_on channel=0 note=74 velocity=0 time=479
note_on channel=0 note=70 velocity=80 time=1
note_on channel=0 note=70 velocity=0 time=479
note_on channel=0 note=74 velocity=80 time=1
note_on channel=0 note=74 velocity=0 time=239
note_on channel=0 note=72 velocity=80 time=1
note_on channel=0 note=72 velocity=0 time=239
note_on channel=0 note=74 velocity=80 time=1
note_on channel=0 note=74 velocity=0 time=239
note_on channel=0 note=75 velocity=80 time=1
note_on channel=0 note=75 velocity=0 time=239
note_on channel=0 note=77 velocity=80 time=1
note_on channel=0 note=77 velocity=0 time=719
note_on channel=0 note=74 velocity=80 time=1
note_on channel=0 note=74 velocity=0 time=239
note_on channel=0 note=77 velocity=80 time=1
note_on channel=0 note=77 velocity=0 time=719
note_on channel=0 note=72 velocity=80 time=1
note_on channel=0 note=72 velocity=0 time=239
note_on channel=0 note=77 velocity=80 time=1
note_on channel=0 note=77 velocity=0 time=719
note_on channel=0 note=70 velocity=80 time=1
note_on channel=0 note=70 velocity=0 time=239
note_on channel=0 note=79 velocity=80 time=1
note_on channel=0 note=79 velocity=0 time=239
note_on channel=0 note=77 velocity=80 time=1
note_on channel=0 note=77 velocity=0 time=239
note_on channel=0 note=75 velocity=80 time=1
note_on channel=0 note=75 velocity=0 time=239
note_on channel=0 note=74 velocity=80 time=1
note_on channel=0 note=74 velocity=0 time=239
note_on channel=0 note=75 velocity=80 time=1
note_on channel=0 note=75 velocity=0 time=239
note_on channel=0 note=74 velocity=80 time=1
note_on channel=0 note=74 velocity=0 time=239
note_on channel=0 note=72 velocity=80 time=1
note_on channel=0 note=72 velocity=0 time=239
note_on channel=0 note=70 velocity=80 time=1
note_on channel=0 note=70 velocity=0 time=239
note_on channel=0 note=72 velocity=80 time=1
note_on channel=0 note=72 velocity=0 time=239
note_on channel=0 note=70 velocity=80 time=1
note_on channel=0 note=70 velocity=0 time=239
note_on channel=0 note=69 velocity=80 time=1
note_on channel=0 note=69 velocity=0 time=239
note_on channel=0 note=67 velocity=80 time=1
note_on channel=0 note=67 velocity=0 time=239
note_on channel=0 note=62 velocity=80 time=1
note_on channel=0 note=62 velocity=0 time=959
note_on channel=0 note=67 velocity=80 time=1
note_on channel=0 note=67 velocity=0 time=479
note_on channel=0 note=69 velocity=80 time=1
note_on channel=0 note=69 velocity=0 time=479
note_on channel=0 note=70 velocity=80 time=1
note_on channel=0 note=70 velocity=0 time=479
note_on channel=0 note=67 velocity=80 time=1
note_on channel=0 note=67 velocity=0 time=479
note_on channel=0 note=66 velocity=80 time=1
note_on channel=0 note=66 velocity=0 time=479
note_on channel=0 note=67 velocity=80 time=1
note_on channel=0 note=67 velocity=0 time=239
note_on channel=0 note=69 velocity=80 time=1
note_on channel=0 note=69 velocity=0 time=239
note_on channel=0 note=67 velocity=80 time=1
note_on channel=0 note=67 velocity=0 time=479
note_on channel=0 note=69 velocity=80 time=1
note_on channel=0 note=69 velocity=0 time=479
note_on channel=0 note=70 velocity=80 time=1
note_on channel=0 note=70 velocity=0 time=479
note_on channel=0 note=72 velocity=80 time=1
note_on channel=0 note=72 velocity=0 time=479
note_on channel=0 note=63 velocity=80 time=1
note_on channel=0 note=63 velocity=0 time=959
note_on channel=0 note=69 velocity=80 time=1
note_on channel=0 note=69 velocity=0 time=479
note_on channel=0 note=70 velocity=80 time=1
note_on channel=0 note=70 velocity=0 time=479
note_on channel=0 note=72 velocity=80 time=1
note_on channel=0 note=72 velocity=0 time=479
note_on channel=0 note=69 velocity=80 time=1
note_on channel=0 note=69 velocity=0 time=479
note_on channel=0 note=67 velocity=80 time=1
note_on channel=0 note=67 velocity=0 time=479
note_on channel=0 note=69 velocity=80 time=1
note_on channel=0 note=69 velocity=0 time=239
note_on channel=0 note=70 velocity=80 time=1
note_on channel=0 note=70 velocity=0 time=239
note_on channel=0 note=69 velocity=80 time=1
note_on channel=0 note=69 velocity=0 time=479
note_on channel=0 note=70 velocity=80 time=1
note_on channel=0 note=70 velocity=0 time=479
note_on channel=0 note=72 velocity=80 time=1
note_on channel=0 note=72 velocity=0 time=479
note_on channel=0 note=74 velocity=80 time=1
note_on channel=0 note=74 velocity=0 time=479
note_on channel=0 note=65 velocity=80 time=1
note_on channel=0 note=65 velocity=0 time=959
note_on channel=0 note=70 velocity=80 time=1
note_on channel=0 note=70 velocity=0 time=479
note_on channel=0 note=72 velocity=80 time=1
note_on channel=0 note=72 velocity=0 time=479
note_on channel=0 note=74 velocity=80 time=1
note_on channel=0 note=74 velocity=0 time=479
note_on channel=0 note=70 velocity=80 time=1
note_on channel=0 note=70 velocity=0 time=479
note_on channel=0 note=69 velocity=80 time=1
note_on channel=0 note=69 velocity=0 time=479
note_on channel=0 note=70 velocity=80 time=1
note_on channel=0 note=70 velocity=0 time=239
note_on channel=0 note=72 velocity=80 time=1
note_on channel=0 note=72 velocity=0 time=239
note_on channel=0 note=70 velocity=80 time=1
note_on channel=0 note=70 velocity=0 time=479
note_on channel=0 note=74 velocity=80 time=1
note_on channel=0 note=74 velocity=0 time=479
note_on channel=0 note=70 velocity=80 time=1
note_on channel=0 note=70 velocity=0 time=239
note_on channel=0 note=72 velocity=80 time=1
note_on channel=0 note=72 velocity=0 time=239
note_on channel=0 note=74 velocity=80 time=1
note_on channel=0 note=74 velocity=0 time=239
note_on channel=0 note=75 velocity=80 time=1
note_on channel=0 note=75 velocity=0 time=239
note_on channel=0 note=74 velocity=80 time=1
note_on channel=0 note=74 velocity=0 time=239
note_on channel=0 note=75 velocity=80 time=1
note_on channel=0 note=75 velocity=0 time=239
note_on channel=0 note=77 velocity=80 time=1
note_on channel=0 note=77 velocity=0 time=239
note_on channel=0 note=79 velocity=80 time=1
note_on channel=0 note=79 velocity=0 time=239
note_on channel=0 note=77 velocity=80 time=1
note_on channel=0 note=77 velocity=0 time=239
note_on channel=0 note=79 velocity=80 time=1
note_on channel=0 note=79 velocity=0 time=239
note_on channel=0 note=81 velocity=80 time=1
note_on channel=0 note=81 velocity=0 time=239
note_on channel=0 note=82 velocity=80 time=1
note_on channel=0 note=82 velocity=0 time=239
note_on channel=0 note=84 velocity=80 time=1
note_on channel=0 note=84 velocity=0 time=239
note_on channel=0 note=82 velocity=80 time=1
note_on channel=0 note=82 velocity=0 time=239
note_on channel=0 note=81 velocity=80 time=1
note_on channel=0 note=81 velocity=0 time=239
note_on channel=0 note=79 velocity=80 time=1
note_on channel=0 note=79 velocity=0 time=239
note_on channel=0 note=74 velocity=80 time=1
note_on channel=0 note=74 velocity=0 time=479
note_on channel=0 note=75 velocity=80 time=1
note_on channel=0 note=75 velocity=0 time=479
note_on channel=0 note=74 velocity=80 time=1
note_on channel=0 note=74 velocity=0 time=239
note_on channel=0 note=75 velocity=80 time=1
note_on channel=0 note=75 velocity=0 time=239
note_on channel=0 note=74 velocity=80 time=1
note_on channel=0 note=74 velocity=0 time=239
note_on channel=0 note=72 velocity=80 time=1
note_on channel=0 note=72 velocity=0 time=239
note_on channel=0 note=74 velocity=80 time=1
note_on channel=0 note=74 velocity=0 time=479
note_on channel=0 note=81 velocity=80 time=481
note_on channel=0 note=81 velocity=0 time=239
note_on channel=0 note=79 velocity=80 time=1
note_on channel=0 note=79 velocity=0 time=239
note_on channel=0 note=78 velocity=80 time=1
note_on channel=0 note=78 velocity=0 time=239
note_on channel=0 note=75 velocity=80 time=1
note_on channel=0 note=75 velocity=0 time=239
note_on channel=0 note=74 velocity=80 time=1
note_on channel=0 note=74 velocity=0 time=239
note_on channel=0 note=69 velocity=80 time=1
note_on channel=0 note=69 velocity=0 time=239
note_on channel=0 note=70 velocity=80 time=1
note_on channel=0 note=70 velocity=0 time=239
note_on channel=0 note=72 velocity=80 time=1
note_on channel=0 note=72 velocity=0 time=239
note_on channel=0 note=74 velocity=80 time=1
note_on channel=0 note=74 velocity=0 time=239
note_on channel=0 note=75 velocity=80 time=1
note_on channel=0 note=75 velocity=0 time=239
note_on channel=0 note=74 velocity=80 time=1
note_on channel=0 note=74 velocity=0 time=239
note_on channel=0 note=72 velocity=80 time=1
note_on channel=0 note=72 velocity=0 time=239
note_on channel=0 note=74 velocity=80 time=1
note_on channel=0 note=74 velocity=0 time=479
note_on channel=0 note=79 velocity=80 time=481
note_on channel=0 note=79 velocity=0 time=239
note_on channel=0 note=77 velocity=80 time=1
note_on channel=0 note=77 velocity=0 time=239
note_on channel=0 note=75 velocity=80 time=1
note_on channel=0 note=75 velocity=0 time=239
note_on channel=0 note=74 velocity=80 time=1
note_on channel=0 note=74 velocity=0 time=239
note_on channel=0 note=72 velocity=80 time=1
note_on channel=0 note=72 velocity=0 time=239
note_on channel=0 note=70 velocity=80 time=1
note_on channel=0 note=70 velocity=0 time=239
note_on channel=0 note=69 velocity=80 time=1
note_on channel=0 note=69 velocity=0 time=239
note_on channel=0 note=70 velocity=80 time=1
note_on channel=0 note=70 velocity=0 time=239
note_on channel=0 note=72 velocity=80 time=1
note_on channel=0 note=72 velocity=0 time=239
note_on channel=0 note=74 velocity=80 time=1
note_on channel=0 note=74 velocity=0 time=239
note_on channel=0 note=72 velocity=80 time=1
note_on channel=0 note=72 velocity=0 time=239
note_on channel=0 note=70 velocity=80 time=1
note_on channel=0 note=70 velocity=0 time=239
note_on channel=0 note=72 velocity=80 time=1
note_on channel=0 note=72 velocity=0 time=479
note_on channel=0 note=75 velocity=80 time=481
note_on channel=0 note=75 velocity=0 time=239
note_on channel=0 note=74 velocity=80 time=1
note_on channel=0 note=74 velocity=0 time=239
note_on channel=0 note=72 velocity=80 time=1
note_on channel=0 note=72 velocity=0 time=239
note_on channel=0 note=70 velocity=80 time=1
note_on channel=0 note=70 velocity=0 time=239
note_on channel=0 note=69 velocity=80 time=1
note_on channel=0 note=69 velocity=0 time=239
note_on channel=0 note=67 velocity=80 time=1
note_on channel=0 note=67 velocity=0 time=239
note_on channel=0 note=66 velocity=80 time=1
note_on channel=0 note=66 velocity=0 time=239
note_on channel=0 note=63 velocity=80 time=1
note_on channel=0 note=63 velocity=0 time=239
note_on channel=0 note=62 velocity=80 time=1
note_on channel=0 note=62 velocity=0 time=239
note_on channel=0 note=60 velocity=80 time=1
note_on channel=0 note=60 velocity=0 time=239
note_on channel=0 note=62 velocity=80 time=1
note_on channel=0 note=62 velocity=0 time=239
note_on channel=0 note=63 velocity=80 time=1
note_on channel=0 note=63 velocity=0 time=239
note_on channel=0 note=66 velocity=80 time=1
note_on channel=0 note=66 velocity=0 time=239
note_on channel=0 note=67 velocity=80 time=1
note_on channel=0 note=67 velocity=0 time=239
note_on channel=0 note=69 velocity=80 time=1
note_on channel=0 note=69 velocity=0 time=479
note_on channel=0 note=66 velocity=80 time=1
note_on channel=0 note=66 velocity=0 time=479
note_on channel=0 note=69 velocity=80 time=1
note_on channel=0 note=69 velocity=0 time=239
note_on channel=0 note=67 velocity=80 time=1
note_on channel=0 note=67 velocity=0 time=239
note_on channel=0 note=69 velocity=80 time=1
note_on channel=0 note=69 velocity=0 time=239
note_on channel=0 note=70 velocity=80 time=1
note_on channel=0 note=70 velocity=0 time=239
note_on channel=0 note=72 velocity=80 time=1
note_on channel=0 note=72 velocity=0 time=479
note_on channel=0 note=69 velocity=80 time=1
note_on channel=0 note=69 velocity=0 time=479
note_on channel=0 note=72 velocity=80 time=1
note_on channel=0 note=72 velocity=0 time=239
note_on channel=0 note=70 velocity=80 time=1
note_on channel=0 note=70 velocity=0 time=239
note_on channel=0 note=72 velocity=80 time=1
note_on channel=0 note=72 velocity=0 time=239
note_on channel=0 note=74 velocity=80 time=1
note_on channel=0 note=74 velocity=0 time=239
note_on channel=0 note=75 velocity=80 time=1
note_on channel=0 note=75 velocity=0 time=479
note_on channel=0 note=72 velocity=80 time=1
note_on channel=0 note=72 velocity=0 time=479
note_on channel=0 note=75 velocity=80 time=1
note_on channel=0 note=75 velocity=0 time=239
note_on channel=0 note=74 velocity=80 time=1
note_on channel=0 note=74 velocity=0 time=239
note_on channel=0 note=75 velocity=80 time=1
note_on channel=0 note=75 velocity=0 time=239
note_on channel=0 note=77 velocity=80 time=1
note_on channel=0 note=77 velocity=0 time=239
note_on channel=0 note=78 velocity=80 time=1
note_on channel=0 note=78 velocity=0 time=479
note_on channel=0 note=74 velocity=80 time=1
note_on channel=0 note=74 velocity=0 time=479
note_on channel=0 note=78 velocity=80 time=1
note_on channel=0 note=78 velocity=0 time=239
note_on channel=0 note=76 velocity=80 time=1
note_on channel=0 note=76 velocity=0 time=239
note_on channel=0 note=78 velocity=80 time=1
note_on channel=0 note=78 velocity=0 time=239
note_on channel=0 note=79 velocity=80 time=1
note_on channel=0 note=79 velocity=0 time=239
note_on channel=0 note=81 velocity=80 time=1
note_on channel=0 note=81 velocity=0 time=479
note_on channel=0 note=78 velocity=80 time=1
note_on channel=0 note=78 velocity=0 time=479
note_on channel=0 note=81 velocity=80 time=1
note_on channel=0 note=81 velocity=0 time=239
note_on channel=0 note=79 velocity=80 time=1
note_on channel=0 note=79 velocity=0 time=239
note_on channel=0 note=81 velocity=80 time=1
note_on channel=0 note=81 velocity=0 time=239
note_on channel=0 note=82 velocity=80 time=1
note_on channel=0 note=82 velocity=0 time=239
note_on channel=0 note=84 velocity=80 time=1
note_on channel=0 note=84 velocity=0 time=239
note_on channel=0 note=87 velocity=80 time=1
note_on channel=0 note=87 velocity=0 time=239
note_on channel=0 note=84 velocity=80 time=1
note_on channel=0 note=84 velocity=0 time=239
note_on channel=0 note=82 velocity=80 time=1
note_on channel=0 note=82 velocity=0 time=239
note_on channel=0 note=81 velocity=80 time=1
note_on channel=0 note=81 velocity=0 time=239
note_on channel=0 note=79 velocity=80 time=1
note_on channel=0 note=79 velocity=0 time=239
note_on channel=0 note=78 velocity=80 time=1
note_on channel=0 note=78 velocity=0 time=239
note_on channel=0 note=75 velocity=80 time=1
note_on channel=0 note=75 velocity=0 time=239
note_on channel=0 note=74 velocity=80 time=1
note_on channel=0 note=74 velocity=0 time=239
note_on channel=0 note=72 velocity=80 time=1
note_on channel=0 note=72 velocity=0 time=239
note_on channel=0 note=74 velocity=80 time=1
note_on channel=0 note=74 velocity=0 time=239
note_on channel=0 note=78 velocity=80 time=1
note_on channel=0 note=78 velocity=0 time=239
note_on channel=0 note=70 velocity=80 time=1
note_on channel=0 note=70 velocity=0 time=239
note_on channel=0 note=74 velocity=80 time=1
note_on channel=0 note=74 velocity=0 time=239
note_on channel=0 note=67 velocity=80 time=1
note_on channel=0 note=67 velocity=0 time=239
note_on channel=0 note=70 velocity=80 time=1
note_on channel=0 note=70 velocity=0 time=239
note_on channel=0 note=62 velocity=80 time=1
note_on channel=0 note=62 velocity=0 time=239
note_on channel=0 note=67 velocity=80 time=1
note_on channel=0 note=67 velocity=0 time=239
note_on channel=0 note=75 velocity=80 time=1
note_on channel=0 note=75 velocity=0 time=239
note_on channel=0 note=79 velocity=80 time=1
note_on channel=0 note=79 velocity=0 time=239
note_on channel=0 note=72 velocity=80 time=1
note_on channel=0 note=72 velocity=0 time=239
note_on channel=0 note=75 velocity=80 time=1
note_on channel=0 note=75 velocity=0 time=239
note_on channel=0 note=69 velocity=80 time=1
note_on channel=0 note=69 velocity=0 time=239
note_on channel=0 note=72 velocity=80 time=1
note_on channel=0 note=72 velocity=0 time=239
note_on channel=0 note=66 velocity=80 time=1
note_on channel=0 note=66 velocity=0 time=239
note_on channel=0 note=69 velocity=80 time=1
note_on channel=0 note=69 velocity=0 time=239
note_on channel=0 note=78 velocity=80 time=1
note_on channel=0 note=78 velocity=0 time=239
note_on channel=0 note=81 velocity=80 time=1
note_on channel=0 note=81 velocity=0 time=239
note_on channel=0 note=75 velocity=80 time=1
note_on channel=0 note=75 velocity=0 time=239
note_on channel=0 note=78 velocity=80 time=1
note_on channel=0 note=78 velocity=0 time=239
note_on channel=0 note=72 velocity=80 time=1
note_on channel=0 note=72 velocity=0 time=239
note_on channel=0 note=75 velocity=80 time=1
note_on channel=0 note=75 velocity=0 time=239
note_on channel=0 note=69 velocity=80 time=1
note_on channel=0 note=69 velocity=0 time=239
note_on channel=0 note=72 velocity=80 time=1
note_on channel=0 note=72 velocity=0 time=239
note_on channel=0 note=74 velocity=49 time=1
note_on channel=0 note=74 velocity=0 time=239
note_on channel=0 note=75 velocity=49 time=1
note_on channel=0 note=75 velocity=0 time=239
note_on channel=0 note=74 velocity=49 time=1
note_on channel=0 note=74 velocity=0 time=239
note_on channel=0 note=75 velocity=49 time=1
note_on channel=0 note=75 velocity=0 time=239
note_on channel=0 note=74 velocity=49 time=1
note_on channel=0 note=74 velocity=0 time=239
note_on channel=0 note=75 velocity=49 time=1
note_on channel=0 note=75 velocity=0 time=239
note_on channel=0 note=74 velocity=49 time=1
note_on channel=0 note=74 velocity=0 time=239
note_on channel=0 note=75 velocity=49 time=1
note_on channel=0 note=75 velocity=0 time=239
note_on channel=0 note=74 velocity=49 time=1
note_on channel=0 note=74 velocity=0 time=239
note_on channel=0 note=75 velocity=49 time=1
note_on channel=0 note=75 velocity=0 time=239
note_on channel=0 note=74 velocity=49 time=1
note_on channel=0 note=74 velocity=0 time=239
note_on channel=0 note=75 velocity=49 time=1
note_on channel=0 note=75 velocity=0 time=239
note_on channel=0 note=74 velocity=49 time=1
note_on channel=0 note=74 velocity=0 time=239
note_on channel=0 note=75 velocity=49 time=1
note_on channel=0 note=75 velocity=0 time=239
note_on channel=0 note=74 velocity=49 time=1
note_on channel=0 note=74 velocity=0 time=239
note_on channel=0 note=75 velocity=49 time=1
note_on channel=0 note=75 velocity=0 time=239
note_on channel=0 note=74 velocity=49 time=1
note_on channel=0 note=74 velocity=0 time=239
note_on channel=0 note=75 velocity=49 time=1
note_on channel=0 note=75 velocity=0 time=239
note_on channel=0 note=74 velocity=49 time=1
note_on channel=0 note=74 velocity=0 time=239
note_on channel=0 note=75 velocity=49 time=1
note_on channel=0 note=75 velocity=0 time=239
note_on channel=0 note=74 velocity=49 time=1
note_on channel=0 note=74 velocity=0 time=239
note_on channel=0 note=75 velocity=49 time=1
note_on channel=0 note=75 velocity=0 time=239
note_on channel=0 note=74 velocity=49 time=1
note_on channel=0 note=74 velocity=0 time=239
note_on channel=0 note=75 velocity=49 time=1
note_on channel=0 note=75 velocity=0 time=239
note_on channel=0 note=72 velocity=49 time=1
note_on channel=0 note=72 velocity=0 time=239
note_on channel=0 note=74 velocity=49 time=1
note_on channel=0 note=74 velocity=0 time=239
note_on channel=0 note=72 velocity=50 time=1
note_on channel=0 note=72 velocity=0 time=239
note_on channel=0 note=74 velocity=50 time=1
note_on channel=0 note=74 velocity=0 time=239
note_on channel=0 note=72 velocity=51 time=1
note_on channel=0 note=72 velocity=0 time=239
note_on channel=0 note=74 velocity=52 time=1
note_on channel=0 note=74 velocity=0 time=239
note_on channel=0 note=72 velocity=52 time=1
note_on channel=0 note=72 velocity=0 time=239
note_on channel=0 note=74 velocity=53 time=1
note_on channel=0 note=74 velocity=0 time=239
note_on channel=0 note=72 velocity=54 time=1
note_on channel=0 note=72 velocity=0 time=239
note_on channel=0 note=74 velocity=54 time=1
note_on channel=0 note=74 velocity=0 time=239
note_on channel=0 note=72 velocity=55 time=1
note_on channel=0 note=72 velocity=0 time=239
note_on channel=0 note=74 velocity=55 time=1
note_on channel=0 note=74 velocity=0 time=239
note_on channel=0 note=72 velocity=56 time=1
note_on channel=0 note=72 velocity=0 time=239
note_on channel=0 note=74 velocity=57 time=1
note_on channel=0 note=74 velocity=0 time=239
note_on channel=0 note=72 velocity=57 time=1
note_on channel=0 note=72 velocity=0 time=239
note_on channel=0 note=74 velocity=58 time=1
note_on channel=0 note=74 velocity=0 time=239
note_on channel=0 note=70 velocity=59 time=1
note_on channel=0 note=70 velocity=0 time=239
note_on channel=0 note=72 velocity=59 time=1
note_on channel=0 note=72 velocity=0 time=239
note_on channel=0 note=70 velocity=60 time=1
note_on channel=0 note=70 velocity=0 time=239
note_on channel=0 note=72 velocity=60 time=1
note_on channel=0 note=72 velocity=0 time=239
note_on channel=0 note=70 velocity=61 time=1
note_on channel=0 note=70 velocity=0 time=239
note_on channel=0 note=72 velocity=62 time=1
note_on channel=0 note=72 velocity=0 time=239
note_on channel=0 note=70 velocity=62 time=1
note_on channel=0 note=70 velocity=0 time=239
note_on channel=0 note=72 velocity=63 time=1
note_on channel=0 note=72 velocity=0 time=239
note_on channel=0 note=70 velocity=64 time=1
note_on channel=0 note=70 velocity=0 time=239
note_on channel=0 note=72 velocity=67 time=1
note_on channel=0 note=72 velocity=0 time=239
note_on channel=0 note=74 velocity=70 time=1
note_on channel=0 note=74 velocity=0 time=239
note_on channel=0 note=75 velocity=73 time=1
note_on channel=0 note=75 velocity=0 time=239
note_on channel=0 note=78 velocity=76 time=1
note_on channel=0 note=78 velocity=0 time=239
note_on channel=0 note=75 velocity=80 time=1
note_on channel=0 note=75 velocity=0 time=239
note_on channel=0 note=74 velocity=83 time=1
note_on channel=0 note=74 velocity=0 time=239
note_on channel=0 note=72 velocity=86 time=1
note_on channel=0 note=72 velocity=0 time=239
note_on channel=0 note=74 velocity=89 time=1
note_on channel=0 note=70 velocity=89 time=0
note_on channel=0 note=74 velocity=0 time=239
note_on channel=0 note=75 velocity=92 time=1
note_on channel=0 note=75 velocity=0 time=239
note_on channel=0 note=74 velocity=96 time=1
note_on channel=0 note=74 velocity=0 time=239
note_on channel=0 note=72 velocity=96 time=1
note_on channel=0 note=70 velocity=0 time=239
note_on channel=0 note=72 velocity=0 time=0
note_on channel=0 note=74 velocity=96 time=1
note_on channel=0 note=69 velocity=96 time=0
note_on channel=0 note=74 velocity=0 time=239
note_on channel=0 note=75 velocity=96 time=1
note_on channel=0 note=75 velocity=0 time=239
note_on channel=0 note=74 velocity=96 time=1
note_on channel=0 note=74 velocity=0 time=239
note_on channel=0 note=72 velocity=96 time=1
note_on channel=0 note=69 velocity=0 time=239
note_on channel=0 note=72 velocity=0 time=0
note_on channel=0 note=74 velocity=96 time=1
note_on channel=0 note=67 velocity=96 time=0
note_on channel=0 note=74 velocity=0 time=239
note_on channel=0 note=75 velocity=96 time=1
note_on channel=0 note=75 velocity=0 time=239
note_on channel=0 note=74 velocity=96 time=1
note_on channel=0 note=74 velocity=0 time=239
note_on channel=0 note=72 velocity=96 time=1
note_on channel=0 note=67 velocity=0 time=239
note_on channel=0 note=72 velocity=0 time=0
note_on channel=0 note=70 velocity=96 time=1
note_on channel=0 note=65 velocity=96 time=0
note_on channel=0 note=70 velocity=0 time=239
note_on channel=0 note=72 velocity=96 time=1
note_on channel=0 note=72 velocity=0 time=239
note_on channel=0 note=69 velocity=96 time=1
note_on channel=0 note=69 velocity=0 time=239
note_on channel=0 note=70 velocity=96 time=1
note_on channel=0 note=65 velocity=0 time=239
note_on channel=0 note=70 velocity=0 time=0
note_on channel=0 note=72 velocity=96 time=1
note_on channel=0 note=63 velocity=96 time=0
note_on channel=0 note=72 velocity=0 time=239
note_on channel=0 note=74 velocity=96 time=1
note_on channel=0 note=74 velocity=0 time=239
note_on channel=0 note=72 velocity=96 time=1
note_on channel=0 note=72 velocity=0 time=239
note_on channel=0 note=70 velocity=96 time=1
note_on channel=0 note=63 velocity=0 time=239
note_on channel=0 note=70 velocity=0 time=0
note_on channel=0 note=72 velocity=96 time=1
note_on channel=0 note=66 velocity=96 time=0
note_on channel=0 note=72 velocity=0 time=239
note_on channel=0 note=74 velocity=96 time=1
note_on channel=0 note=74 velocity=0 time=239
note_on channel=0 note=72 velocity=96 time=1
note_on channel=0 note=72 velocity=0 time=239
note_on channel=0 note=70 velocity=96 time=1
note_on channel=0 note=66 velocity=0 time=239
note_on channel=0 note=70 velocity=0 time=0
note_on channel=0 note=72 velocity=96 time=1
note_on channel=0 note=67 velocity=96 time=0
note_on channel=0 note=72 velocity=0 time=239
note_on channel=0 note=74 velocity=96 time=1
note_on channel=0 note=74 velocity=0 time=239
note_on channel=0 note=72 velocity=96 time=1
note_on channel=0 note=72 velocity=0 time=239
note_on channel=0 note=70 velocity=96 time=1
note_on channel=0 note=67 velocity=0 time=239
note_on channel=0 note=70 velocity=0 time=0
note_on channel=0 note=69 velocity=96 time=1
note_on channel=0 note=66 velocity=96 time=0
note_on channel=0 note=69 velocity=0 time=239
note_on channel=0 note=70 velocity=96 time=1
note_on channel=0 note=66 velocity=0 time=239
note_on channel=0 note=70 velocity=0 time=0
note_on channel=0 note=67 velocity=96 time=1
note_on channel=0 note=63 velocity=96 time=0
note_on channel=0 note=67 velocity=0 time=239
note_on channel=0 note=69 velocity=96 time=1
note_on channel=0 note=63 velocity=0 time=239
note_on channel=0 note=69 velocity=0 time=0
note_on channel=0 note=74 velocity=96 time=1
note_on channel=0 note=62 velocity=96 time=0
note_on channel=0 note=70 velocity=96 time=0
note_on channel=0 note=74 velocity=0 time=479
note_on channel=0 note=70 velocity=0 time=1
note_on channel=0 note=70 velocity=96 time=0
note_on channel=0 note=74 velocity=96 time=480
note_on channel=0 note=74 velocity=0 time=239
note_on channel=0 note=72 velocity=96 time=1
note_on channel=0 note=72 velocity=0 time=239
note_on channel=0 note=74 velocity=96 time=1
note_on channel=0 note=74 velocity=0 time=239
note_on channel=0 note=75 velocity=96 time=1
note_on channel=0 note=62 velocity=0 time=239
note_on channel=0 note=70 velocity=0 time=0
note_on channel=0 note=75 velocity=0 time=0
note_on channel=0 note=72 velocity=96 time=1
note_on channel=0 note=72 velocity=0 time=479
note_on channel=0 note=69 velocity=96 time=1
note_on channel=0 note=69 velocity=0 time=479
note_on channel=0 note=72 velocity=96 time=1
note_on channel=0 note=72 velocity=0 time=239
note_on channel=0 note=70 velocity=96 time=1
note_on channel=0 note=70 velocity=0 time=239
note_on channel=0 note=72 velocity=96 time=1
note_on channel=0 note=72 velocity=0 time=239
note_on channel=0 note=74 velocity=96 time=1
note_on channel=0 note=74 velocity=0 time=239
note_on channel=0 note=70 velocity=96 time=1
note_on channel=0 note=70 velocity=0 time=479
note_on channel=0 note=67 velocity=96 time=1
note_on channel=0 note=67 velocity=0 time=479
note_on channel=0 note=70 velocity=96 time=1
note_on channel=0 note=70 velocity=0 time=239
note_on channel=0 note=69 velocity=96 time=1
note_on channel=0 note=69 velocity=0 time=239
note_on channel=0 note=70 velocity=96 time=1
note_on channel=0 note=70 velocity=0 time=239
note_on channel=0 note=72 velocity=96 time=1
note_on channel=0 note=72 velocity=0 time=239
note_on channel=0 note=69 velocity=96 time=1
note_on channel=0 note=69 velocity=0 time=479
note_on channel=0 note=66 velocity=115 time=1441
note_on channel=0 note=66 velocity=0 time=719
note_on channel=0 note=67 velocity=96 time=1
note_on channel=0 note=67 velocity=0 time=119
note_on channel=0 note=69 velocity=96 time=1
note_on channel=0 note=69 velocity=0 time=119
note_on channel=0 note=70 velocity=96 time=1
note_on channel=0 note=70 velocity=0 time=239
note_on channel=0 note=69 velocity=96 time=1
note_on channel=0 note=69 velocity=0 time=239
note_on channel=0 note=67 velocity=96 time=1
note_on channel=0 note=67 velocity=0 time=239
note_on channel=0 note=62 velocity=96 time=1
note_on channel=0 note=62 velocity=0 time=239
note_on channel=0 note=72 velocity=96 time=1
note_on channel=0 note=72 velocity=0 time=239
note_on channel=0 note=70 velocity=96 time=1
note_on channel=0 note=70 velocity=0 time=239
note_on channel=0 note=69 velocity=96 time=1
note_on channel=0 note=69 velocity=0 time=239
note_on channel=0 note=67 velocity=96 time=1
note_on channel=0 note=67 velocity=0 time=239
note_on channel=0 note=74 velocity=96 time=1
note_on channel=0 note=74 velocity=0 time=239
note_on channel=0 note=75 velocity=96 time=1
note_on channel=0 note=75 velocity=0 time=239
note_on channel=0 note=74 velocity=96 time=1
note_on channel=0 note=74 velocity=0 time=239
note_on channel=0 note=72 velocity=96 time=1
note_on channel=0 note=72 velocity=0 time=239
note_on channel=0 note=69 velocity=115 time=1
note_on channel=0 note=69 velocity=0 time=719
note_on channel=0 note=70 velocity=96 time=1
note_on channel=0 note=70 velocity=0 time=119
note_on channel=0 note=71 velocity=96 time=1
note_on channel=0 note=71 velocity=0 time=119
note_on channel=0 note=72 velocity=96 time=1
note_on channel=0 note=72 velocity=0 time=239
note_on channel=0 note=70 velocity=96 time=1
note_on channel=0 note=70 velocity=0 time=239
note_on channel=0 note=69 velocity=96 time=1
note_on channel=0 note=69 velocity=0 time=239
note_on channel=0 note=63 velocity=96 time=1
note_on channel=0 note=63 velocity=0 time=239
note_on channel=0 note=74 velocity=96 time=1
note_on channel=0 note=74 velocity=0 time=239
note_on channel=0 note=72 velocity=96 time=1
note_on channel=0 note=72 velocity=0 time=239
note_on channel=0 note=70 velocity=96 time=1
note_on channel=0 note=70 velocity=0 time=239
note_on channel=0 note=67 velocity=96 time=1
note_on channel=0 note=67 velocity=0 time=239
note_on channel=0 note=74 velocity=96 time=1
note_on channel=0 note=74 velocity=0 time=239
note_on channel=0 note=75 velocity=96 time=1
note_on channel=0 note=75 velocity=0 time=239
note_on channel=0 note=72 velocity=96 time=1
note_on channel=0 note=72 velocity=0 time=239
note_on channel=0 note=74 velocity=96 time=1
note_on channel=0 note=74 velocity=0 time=239
note_on channel=0 note=70 velocity=96 time=1
note_on channel=0 note=70 velocity=0 time=239
note_on channel=0 note=72 velocity=96 time=1
note_on channel=0 note=72 velocity=0 time=239
note_on channel=0 note=69 velocity=96 time=1
note_on channel=0 note=69 velocity=0 time=239
note_on channel=0 note=70 velocity=96 time=1
note_on channel=0 note=70 velocity=0 time=239
note_on channel=0 note=72 velocity=96 time=1
note_on channel=0 note=72 velocity=0 time=239
note_on channel=0 note=70 velocity=96 time=1
note_on channel=0 note=70 velocity=0 time=239
note_on channel=0 note=69 velocity=96 time=1
note_on channel=0 note=69 velocity=0 time=239
note_on channel=0 note=67 velocity=96 time=1
note_on channel=0 note=67 velocity=0 time=239
note_on channel=0 note=70 velocity=96 time=1
note_on channel=0 note=70 velocity=0 time=479
note_on channel=0 note=67 velocity=96 time=1
note_on channel=0 note=67 velocity=0 time=479
note_on channel=0 note=70 velocity=96 time=1
note_on channel=0 note=70 velocity=0 time=239
note_on channel=0 note=69 velocity=96 time=1
note_on channel=0 note=69 velocity=0 time=239
note_on channel=0 note=70 velocity=96 time=1
note_on channel=0 note=70 velocity=0 time=239
note_on channel=0 note=72 velocity=96 time=1
note_on channel=0 note=72 velocity=0 time=239
note_on channel=0 note=74 velocity=96 time=1
note_on channel=0 note=74 velocity=0 time=239
note_on channel=0 note=69 velocity=96 time=1
note_on channel=0 note=69 velocity=0 time=239
note_on channel=0 note=74 velocity=96 time=1
note_on channel=0 note=74 velocity=0 time=239
note_on channel=0 note=67 velocity=96 time=1
note_on channel=0 note=67 velocity=0 time=239
note_on channel=0 note=74 velocity=96 time=1
note_on channel=0 note=74 velocity=0 time=239
note_on channel=0 note=69 velocity=96 time=1
note_on channel=0 note=69 velocity=0 time=239
note_on channel=0 note=74 velocity=96 time=1
note_on channel=0 note=74 velocity=0 time=239
note_on channel=0 note=70 velocity=96 time=1
note_on channel=0 note=70 velocity=0 time=239
note_on channel=0 note=74 velocity=96 time=1
note_on channel=0 note=74 velocity=0 time=239
note_on channel=0 note=69 velocity=96 time=1
note_on channel=0 note=69 velocity=0 time=239
note_on channel=0 note=74 velocity=96 time=1
note_on channel=0 note=74 velocity=0 time=239
note_on channel=0 note=67 velocity=96 time=1
note_on channel=0 note=67 velocity=0 time=239
note_on channel=0 note=75 velocity=96 time=1
note_on channel=0 note=75 velocity=0 time=239
note_on channel=0 note=74 velocity=96 time=1
note_on channel=0 note=74 velocity=0 time=239
note_on channel=0 note=72 velocity=96 time=1
note_on channel=0 note=72 velocity=0 time=239
note_on channel=0 note=70 velocity=96 time=1
note_on channel=0 note=70 velocity=0 time=239
note_on channel=0 note=72 velocity=96 time=1
note_on channel=0 note=72 velocity=0 time=479
note_on channel=0 note=69 velocity=96 time=1
note_on channel=0 note=69 velocity=0 time=479
note_on channel=0 note=72 velocity=96 time=1
note_on channel=0 note=72 velocity=0 time=239
note_on channel=0 note=70 velocity=96 time=1
note_on channel=0 note=70 velocity=0 time=239
note_on channel=0 note=72 velocity=96 time=1
note_on channel=0 note=72 velocity=0 time=239
note_on channel=0 note=74 velocity=96 time=1
note_on channel=0 note=74 velocity=0 time=239
note_on channel=0 note=75 velocity=96 time=1
note_on channel=0 note=75 velocity=0 time=239
note_on channel=0 note=69 velocity=96 time=1
note_on channel=0 note=69 velocity=0 time=239
note_on channel=0 note=75 velocity=96 time=1
note_on channel=0 note=75 velocity=0 time=239
note_on channel=0 note=67 velocity=96 time=1
note_on channel=0 note=67 velocity=0 time=239
note_on channel=0 note=75 velocity=96 time=1
note_on channel=0 note=75 velocity=0 time=239
note_on channel=0 note=69 velocity=96 time=1
note_on channel=0 note=69 velocity=0 time=239
note_on channel=0 note=75 velocity=96 time=1
note_on channel=0 note=75 velocity=0 time=239
note_on channel=0 note=70 velocity=96 time=1
note_on channel=0 note=70 velocity=0 time=239
note_on channel=0 note=75 velocity=96 time=1
note_on channel=0 note=75 velocity=0 time=239
note_on channel=0 note=69 velocity=96 time=1
note_on channel=0 note=69 velocity=0 time=239
note_on channel=0 note=75 velocity=96 time=1
note_on channel=0 note=75 velocity=0 time=239
note_on channel=0 note=67 velocity=96 time=1
note_on channel=0 note=67 velocity=0 time=239
note_on channel=0 note=77 velocity=96 time=1
note_on channel=0 note=77 velocity=0 time=239
note_on channel=0 note=75 velocity=96 time=1
note_on channel=0 note=75 velocity=0 time=239
note_on channel=0 note=74 velocity=96 time=1
note_on channel=0 note=74 velocity=0 time=239
note_on channel=0 note=72 velocity=96 time=1
note_on channel=0 note=72 velocity=0 time=239
note_on channel=0 note=74 velocity=96 time=1
note_on channel=0 note=74 velocity=0 time=479
note_on channel=0 note=70 velocity=96 time=1
note_on channel=0 note=70 velocity=0 time=479
note_on channel=0 note=74 velocity=96 time=1
note_on channel=0 note=74 velocity=0 time=239
note_on channel=0 note=72 velocity=96 time=1
note_on channel=0 note=72 velocity=0 time=239
note_on channel=0 note=74 velocity=96 time=1
note_on channel=0 note=74 velocity=0 time=239
note_on channel=0 note=75 velocity=96 time=1
note_on channel=0 note=75 velocity=0 time=239
note_on channel=0 note=77 velocity=96 time=1
note_on channel=0 note=77 velocity=0 time=239
note_on channel=0 note=72 velocity=96 time=1
note_on channel=0 note=72 velocity=0 time=239
note_on channel=0 note=77 velocity=96 time=1
note_on channel=0 note=77 velocity=0 time=239
note_on channel=0 note=70 velocity=96 time=1
note_on channel=0 note=70 velocity=0 time=239
note_on channel=0 note=77 velocity=96 time=1
note_on channel=0 note=77 velocity=0 time=239
note_on channel=0 note=72 velocity=96 time=1
note_on channel=0 note=72 velocity=0 time=239
note_on channel=0 note=77 velocity=96 time=1
note_on channel=0 note=77 velocity=0 time=239
note_on channel=0 note=74 velocity=96 time=1
note_on channel=0 note=74 velocity=0 time=239
note_on channel=0 note=77 velocity=96 time=1
note_on channel=0 note=77 velocity=0 time=239
note_on channel=0 note=72 velocity=96 time=1
note_on channel=0 note=72 velocity=0 time=239
note_on channel=0 note=77 velocity=96 time=1
note_on channel=0 note=77 velocity=0 time=239
note_on channel=0 note=70 velocity=96 time=1
note_on channel=0 note=70 velocity=0 time=239
note_on channel=0 note=79 velocity=96 time=1
note_on channel=0 note=79 velocity=0 time=239
note_on channel=0 note=77 velocity=96 time=1
note_on channel=0 note=77 velocity=0 time=239
note_on channel=0 note=75 velocity=96 time=1
note_on channel=0 note=75 velocity=0 time=239
note_on channel=0 note=74 velocity=96 time=1
note_on channel=0 note=74 velocity=0 time=239
note_on channel=0 note=75 velocity=96 time=1
note_on channel=0 note=75 velocity=0 time=239
note_on channel=0 note=74 velocity=96 time=1
note_on channel=0 note=74 velocity=0 time=239
note_on channel=0 note=72 velocity=96 time=1
note_on channel=0 note=72 velocity=0 time=239
note_on channel=0 note=70 velocity=96 time=1
note_on channel=0 note=70 velocity=0 time=239
note_on channel=0 note=72 velocity=96 time=1
note_on channel=0 note=72 velocity=0 time=239
note_on channel=0 note=70 velocity=96 time=1
note_on channel=0 note=70 velocity=0 time=239
note_on channel=0 note=69 velocity=96 time=1
note_on channel=0 note=69 velocity=0 time=239
note_on channel=0 note=72 velocity=96 time=1
note_on channel=0 note=72 velocity=0 time=239
note_on channel=0 note=67 velocity=96 time=1
note_on channel=0 note=67 velocity=0 time=239
note_on channel=0 note=72 velocity=96 time=1
note_on channel=0 note=72 velocity=0 time=239
note_on channel=0 note=69 velocity=96 time=1
note_on channel=0 note=69 velocity=0 time=239
note_on channel=0 note=72 velocity=96 time=1
note_on channel=0 note=72 velocity=0 time=239
note_on channel=0 note=67 velocity=96 time=1
note_on channel=0 note=67 velocity=0 time=239
note_on channel=0 note=72 velocity=96 time=1
note_on channel=0 note=72 velocity=0 time=239
note_on channel=0 note=69 velocity=96 time=1
note_on channel=0 note=69 velocity=0 time=239
note_on channel=0 note=72 velocity=96 time=1
note_on channel=0 note=72 velocity=0 time=239
note_on channel=0 note=67 velocity=96 time=1
note_on channel=0 note=67 velocity=0 time=239
note_on channel=0 note=74 velocity=96 time=1
note_on channel=0 note=74 velocity=0 time=239
note_on channel=0 note=69 velocity=96 time=1
note_on channel=0 note=69 velocity=0 time=239
note_on channel=0 note=74 velocity=96 time=1
note_on channel=0 note=74 velocity=0 time=239
note_on channel=0 note=67 velocity=96 time=1
note_on channel=0 note=67 velocity=0 time=239
note_on channel=0 note=74 velocity=96 time=1
note_on channel=0 note=74 velocity=0 time=239
note_on channel=0 note=69 velocity=96 time=1
note_on channel=0 note=69 velocity=0 time=239
note_on channel=0 note=74 velocity=96 time=1
note_on channel=0 note=74 velocity=0 time=239
note_on channel=0 note=67 velocity=96 time=1
note_on channel=0 note=67 velocity=0 time=239
note_on channel=0 note=75 velocity=96 time=1
note_on channel=0 note=75 velocity=0 time=239
note_on channel=0 note=69 velocity=96 time=1
note_on channel=0 note=69 velocity=0 time=239
note_on channel=0 note=75 velocity=96 time=1
note_on channel=0 note=75 velocity=0 time=239
note_on channel=0 note=67 velocity=96 time=1
note_on channel=0 note=67 velocity=0 time=239
note_on channel=0 note=75 velocity=96 time=1
note_on channel=0 note=75 velocity=0 time=239
note_on channel=0 note=69 velocity=96 time=1
note_on channel=0 note=69 velocity=0 time=239
note_on channel=0 note=75 velocity=96 time=1
note_on channel=0 note=75 velocity=0 time=239
note_on channel=0 note=67 velocity=96 time=1
note_on channel=0 note=67 velocity=0 time=239
note_on channel=0 note=69 velocity=96 time=1
note_on channel=0 note=69 velocity=0 time=239
note_on channel=0 note=70 velocity=96 time=1
note_on channel=0 note=70 velocity=0 time=239
note_on channel=0 note=72 velocity=96 time=1
note_on channel=0 note=72 velocity=0 time=239
note_on channel=0 note=70 velocity=96 time=1
note_on channel=0 note=70 velocity=0 time=239
note_on channel=0 note=72 velocity=96 time=1
note_on channel=0 note=72 velocity=0 time=239
note_on channel=0 note=74 velocity=96 time=1
note_on channel=0 note=74 velocity=0 time=239
note_on channel=0 note=75 velocity=96 time=1
note_on channel=0 note=75 velocity=0 time=239
note_on channel=0 note=74 velocity=96 time=1
note_on channel=0 note=74 velocity=0 time=239
note_on channel=0 note=75 velocity=96 time=1
note_on channel=0 note=75 velocity=0 time=239
note_on channel=0 note=77 velocity=96 time=1
note_on channel=0 note=77 velocity=0 time=239
note_on channel=0 note=79 velocity=96 time=1
note_on channel=0 note=79 velocity=0 time=239
note_on channel=0 note=74 velocity=96 time=1
note_on channel=0 note=74 velocity=0 time=239
note_on channel=0 note=79 velocity=96 time=1
note_on channel=0 note=79 velocity=0 time=239
note_on channel=0 note=75 velocity=96 time=1
note_on channel=0 note=75 velocity=0 time=239
note_on channel=0 note=79 velocity=96 time=1
note_on channel=0 note=79 velocity=0 time=239
note_on channel=0 note=74 velocity=96 time=1
note_on channel=0 note=74 velocity=0 time=239
note_on channel=0 note=79 velocity=96 time=1
note_on channel=0 note=79 velocity=0 time=239
note_on channel=0 note=75 velocity=96 time=1
note_on channel=0 note=75 velocity=0 time=239
note_on channel=0 note=79 velocity=96 time=1
note_on channel=0 note=79 velocity=0 time=239
note_on channel=0 note=74 velocity=96 time=1
note_on channel=0 note=74 velocity=0 time=239
note_on channel=0 note=81 velocity=96 time=1
note_on channel=0 note=81 velocity=0 time=239
note_on channel=0 note=75 velocity=96 time=1
note_on channel=0 note=75 velocity=0 time=239
note_on channel=0 note=81 velocity=96 time=1
note_on channel=0 note=81 velocity=0 time=239
note_on channel=0 note=74 velocity=96 time=1
note_on channel=0 note=74 velocity=0 time=239
note_on channel=0 note=81 velocity=96 time=1
note_on channel=0 note=81 velocity=0 time=239
note_on channel=0 note=75 velocity=96 time=1
note_on channel=0 note=75 velocity=0 time=239
note_on channel=0 note=81 velocity=96 time=1
note_on channel=0 note=81 velocity=0 time=239
note_on channel=0 note=74 velocity=96 time=1
note_on channel=0 note=74 velocity=0 time=239
note_on channel=0 note=82 velocity=96 time=1
note_on channel=0 note=82 velocity=0 time=239
note_on channel=0 note=75 velocity=96 time=1
note_on channel=0 note=75 velocity=0 time=239
note_on channel=0 note=82 velocity=96 time=1
note_on channel=0 note=82 velocity=0 time=239
note_on channel=0 note=74 velocity=96 time=1
note_on channel=0 note=74 velocity=0 time=239
note_on channel=0 note=82 velocity=96 time=1
note_on channel=0 note=82 velocity=0 time=239
note_on channel=0 note=75 velocity=96 time=1
note_on channel=0 note=75 velocity=0 time=239
note_on channel=0 note=82 velocity=96 time=1
note_on channel=0 note=82 velocity=0 time=239
note_on channel=0 note=79 velocity=96 time=1
note_on channel=0 note=79 velocity=0 time=239
note_on channel=0 note=77 velocity=96 time=1
note_on channel=0 note=77 velocity=0 time=239
note_on channel=0 note=75 velocity=96 time=1
note_on channel=0 note=75 velocity=0 time=239
note_on channel=0 note=74 velocity=96 time=1
note_on channel=0 note=74 velocity=0 time=239
note_on channel=0 note=75 velocity=96 time=1
note_on channel=0 note=75 velocity=0 time=239
note_on channel=0 note=74 velocity=96 time=1
note_on channel=0 note=74 velocity=0 time=239
note_on channel=0 note=72 velocity=96 time=1
note_on channel=0 note=72 velocity=0 time=239
note_on channel=0 note=70 velocity=96 time=1
note_on channel=0 note=70 velocity=0 time=239
note_on channel=0 note=72 velocity=96 time=1
note_on channel=0 note=72 velocity=0 time=239
note_on channel=0 note=70 velocity=96 time=1
note_on channel=0 note=70 velocity=0 time=239
note_on channel=0 note=69 velocity=96 time=1
note_on channel=0 note=69 velocity=0 time=239
note_on channel=0 note=67 velocity=96 time=1
note_on channel=0 note=67 velocity=0 time=0
note_on channel=0 note=66 velocity=96 time=240
note_on channel=0 note=66 velocity=0 time=1919
MetaMessage('end_of_track', time=1)
MetaMessage('track_name', name='Piano', time=0)
MetaMessage('key_signature', key='C', time=0)
MetaMessage('midi_port', port=0, time=0)
note_on channel=0 note=58 velocity=80 time=19200
note_on channel=0 note=58 velocity=0 time=479
note_on channel=0 note=55 velocity=80 time=1
note_on channel=0 note=55 velocity=0 time=479
note_on channel=0 note=58 velocity=80 time=1
note_on channel=0 note=58 velocity=0 time=239
note_on channel=0 note=57 velocity=80 time=1
note_on channel=0 note=57 velocity=0 time=239
note_on channel=0 note=58 velocity=80 time=1
note_on channel=0 note=58 velocity=0 time=239
note_on channel=0 note=60 velocity=80 time=1
note_on channel=0 note=60 velocity=0 time=239
note_on channel=0 note=62 velocity=80 time=1
note_on channel=0 note=62 velocity=0 time=719
note_on channel=0 note=58 velocity=80 time=1
note_on channel=0 note=58 velocity=0 time=239
note_on channel=0 note=62 velocity=80 time=1
note_on channel=0 note=62 velocity=0 time=719
note_on channel=0 note=57 velocity=80 time=1
note_on channel=0 note=57 velocity=0 time=239
note_on channel=0 note=62 velocity=80 time=1
note_on channel=0 note=62 velocity=0 time=719
note_on channel=0 note=55 velocity=80 time=1
note_on channel=0 note=55 velocity=0 time=239
note_on channel=0 note=63 velocity=80 time=1
note_on channel=0 note=63 velocity=0 time=239
note_on channel=0 note=62 velocity=80 time=1
note_on channel=0 note=62 velocity=0 time=239
note_on channel=0 note=60 velocity=80 time=1
note_on channel=0 note=60 velocity=0 time=239
note_on channel=0 note=58 velocity=80 time=1
note_on channel=0 note=58 velocity=0 time=239
note_on channel=0 note=60 velocity=80 time=1
note_on channel=0 note=60 velocity=0 time=479
note_on channel=0 note=57 velocity=80 time=1
note_on channel=0 note=57 velocity=0 time=479
note_on channel=0 note=60 velocity=80 time=1
note_on channel=0 note=60 velocity=0 time=239
note_on channel=0 note=58 velocity=80 time=1
note_on channel=0 note=58 velocity=0 time=239
note_on channel=0 note=60 velocity=80 time=1
note_on channel=0 note=60 velocity=0 time=239
note_on channel=0 note=62 velocity=80 time=1
note_on channel=0 note=62 velocity=0 time=239
note_on channel=0 note=63 velocity=80 time=1
note_on channel=0 note=63 velocity=0 time=719
note_on channel=0 note=58 velocity=80 time=1
note_on channel=0 note=58 velocity=0 time=239
note_on channel=0 note=63 velocity=80 time=1
note_on channel=0 note=63 velocity=0 time=719
note_on channel=0 note=57 velocity=80 time=1
note_on channel=0 note=57 velocity=0 time=239
note_on channel=0 note=63 velocity=80 time=1
note_on channel=0 note=63 velocity=0 time=719
note_on channel=0 note=55 velocity=80 time=1
note_on channel=0 note=55 velocity=0 time=239
note_on channel=0 note=65 velocity=80 time=1
note_on channel=0 note=65 velocity=0 time=239
note_on channel=0 note=63 velocity=80 time=1
note_on channel=0 note=63 velocity=0 time=239
note_on channel=0 note=62 velocity=80 time=1
note_on channel=0 note=62 velocity=0 time=239
note_on channel=0 note=60 velocity=80 time=1
note_on channel=0 note=60 velocity=0 time=239
note_on channel=0 note=62 velocity=80 time=1
note_on channel=0 note=62 velocity=0 time=479
note_on channel=0 note=58 velocity=80 time=1
note_on channel=0 note=58 velocity=0 time=479
note_on channel=0 note=62 velocity=80 time=1
note_on channel=0 note=62 velocity=0 time=239
note_on channel=0 note=60 velocity=80 time=1
note_on channel=0 note=60 velocity=0 time=239
note_on channel=0 note=62 velocity=80 time=1
note_on channel=0 note=62 velocity=0 time=239
note_on channel=0 note=63 velocity=80 time=1
note_on channel=0 note=63 velocity=0 time=239
note_on channel=0 note=65 velocity=80 time=1
note_on channel=0 note=65 velocity=0 time=719
note_on channel=0 note=62 velocity=80 time=1
note_on channel=0 note=62 velocity=0 time=239
note_on channel=0 note=65 velocity=80 time=1
note_on channel=0 note=65 velocity=0 time=719
note_on channel=0 note=60 velocity=80 time=1
note_on channel=0 note=60 velocity=0 time=239
note_on channel=0 note=65 velocity=80 time=1
note_on channel=0 note=65 velocity=0 time=719
note_on channel=0 note=58 velocity=80 time=1
note_on channel=0 note=58 velocity=0 time=239
note_on channel=0 note=67 velocity=80 time=1
note_on channel=0 note=67 velocity=0 time=239
note_on channel=0 note=65 velocity=80 time=1
note_on channel=0 note=65 velocity=0 time=239
note_on channel=0 note=63 velocity=80 time=1
note_on channel=0 note=63 velocity=0 time=239
note_on channel=0 note=62 velocity=80 time=1
note_on channel=0 note=62 velocity=0 time=239
note_on channel=0 note=63 velocity=80 time=1
note_on channel=0 note=63 velocity=0 time=239
note_on channel=0 note=62 velocity=80 time=1
note_on channel=0 note=62 velocity=0 time=239
note_on channel=0 note=60 velocity=80 time=1
note_on channel=0 note=60 velocity=0 time=239
note_on channel=0 note=58 velocity=80 time=1
note_on channel=0 note=58 velocity=0 time=239
note_on channel=0 note=60 velocity=80 time=1
note_on channel=0 note=60 velocity=0 time=239
note_on channel=0 note=58 velocity=80 time=1
note_on channel=0 note=58 velocity=0 time=239
note_on channel=0 note=57 velocity=80 time=1
note_on channel=0 note=57 velocity=0 time=239
note_on channel=0 note=55 velocity=80 time=1
note_on channel=0 note=55 velocity=0 time=239
note_on channel=0 note=54 velocity=80 time=1
note_on channel=0 note=54 velocity=0 time=239
note_on channel=0 note=50 velocity=80 time=1
note_on channel=0 note=50 velocity=0 time=239
note_on channel=0 note=55 velocity=80 time=1
note_on channel=0 note=55 velocity=0 time=719
note_on channel=0 note=55 velocity=80 time=1
note_on channel=0 note=55 velocity=0 time=239
note_on channel=0 note=58 velocity=80 time=1
note_on channel=0 note=58 velocity=0 time=719
note_on channel=0 note=58 velocity=80 time=1
note_on channel=0 note=58 velocity=0 time=239
note_on channel=0 note=62 velocity=80 time=1
note_on channel=0 note=62 velocity=0 time=719
note_on channel=0 note=62 velocity=80 time=1
note_on channel=0 note=62 velocity=0 time=239
note_on channel=0 note=67 velocity=80 time=1
note_on channel=0 note=67 velocity=0 time=479
note_on channel=0 note=62 velocity=80 time=1
note_on channel=0 note=62 velocity=0 time=239
note_on channel=0 note=50 velocity=80 time=1
note_on channel=0 note=50 velocity=0 time=239
note_on channel=0 note=54 velocity=80 time=1
note_on channel=0 note=54 velocity=0 time=719
note_on channel=0 note=54 velocity=80 time=1
note_on channel=0 note=54 velocity=0 time=239
note_on channel=0 note=57 velocity=80 time=1
note_on channel=0 note=57 velocity=0 time=719
note_on channel=0 note=57 velocity=80 time=1
note_on channel=0 note=57 velocity=0 time=239
note_on channel=0 note=60 velocity=80 time=1
note_on channel=0 note=60 velocity=0 time=719
note_on channel=0 note=60 velocity=80 time=1
note_on channel=0 note=60 velocity=0 time=239
note_on channel=0 note=66 velocity=80 time=1
note_on channel=0 note=66 velocity=0 time=479
note_on channel=0 note=60 velocity=80 time=1
note_on channel=0 note=60 velocity=0 time=239
note_on channel=0 note=48 velocity=80 time=1
note_on channel=0 note=48 velocity=0 time=239
note_on channel=0 note=51 velocity=80 time=1
note_on channel=0 note=51 velocity=0 time=719
note_on channel=0 note=51 velocity=80 time=1
note_on channel=0 note=51 velocity=0 time=239
note_on channel=0 note=55 velocity=80 time=1
note_on channel=0 note=55 velocity=0 time=719
note_on channel=0 note=55 velocity=80 time=1
note_on channel=0 note=55 velocity=0 time=239
note_on channel=0 note=58 velocity=80 time=1
note_on channel=0 note=58 velocity=0 time=719
note_on channel=0 note=58 velocity=80 time=1
note_on channel=0 note=58 velocity=0 time=239
note_on channel=0 note=62 velocity=80 time=1
note_on channel=0 note=62 velocity=0 time=719
note_on channel=0 note=46 velocity=80 time=1
note_on channel=0 note=46 velocity=0 time=239
note_on channel=0 note=50 velocity=80 time=1
note_on channel=0 note=50 velocity=0 time=719
note_on channel=0 note=50 velocity=80 time=1
note_on channel=0 note=50 velocity=0 time=239
note_on channel=0 note=54 velocity=80 time=1
note_on channel=0 note=54 velocity=0 time=719
note_on channel=0 note=54 velocity=80 time=1
note_on channel=0 note=54 velocity=0 time=239
note_on channel=0 note=57 velocity=80 time=1
note_on channel=0 note=57 velocity=0 time=719
note_on channel=0 note=57 velocity=80 time=1
note_on channel=0 note=57 velocity=0 time=239
note_on channel=0 note=62 velocity=80 time=1
note_on channel=0 note=62 velocity=0 time=719
note_on channel=0 note=58 velocity=80 time=1
note_on channel=0 note=58 velocity=0 time=239
note_on channel=0 note=57 velocity=80 time=1
note_on channel=0 note=57 velocity=0 time=239
note_on channel=0 note=55 velocity=80 time=1
note_on channel=0 note=55 velocity=0 time=239
note_on channel=0 note=54 velocity=80 time=1
note_on channel=0 note=54 velocity=0 time=239
note_on channel=0 note=52 velocity=80 time=1
note_on channel=0 note=52 velocity=0 time=239
note_on channel=0 note=50 velocity=80 time=1
note_on channel=0 note=50 velocity=0 time=719
note_on channel=0 note=54 velocity=80 time=1
note_on channel=0 note=54 velocity=0 time=239
note_on channel=0 note=55 velocity=80 time=1
note_on channel=0 note=55 velocity=0 time=239
note_on channel=0 note=57 velocity=80 time=1
note_on channel=0 note=57 velocity=0 time=239
note_on channel=0 note=58 velocity=80 time=1
note_on channel=0 note=58 velocity=0 time=239
note_on channel=0 note=60 velocity=80 time=1
note_on channel=0 note=60 velocity=0 time=239
note_on channel=0 note=63 velocity=80 time=1
note_on channel=0 note=63 velocity=0 time=719
note_on channel=0 note=60 velocity=80 time=1
note_on channel=0 note=60 velocity=0 time=239
note_on channel=0 note=58 velocity=80 time=1
note_on channel=0 note=58 velocity=0 time=239
note_on channel=0 note=57 velocity=80 time=1
note_on channel=0 note=57 velocity=0 time=239
note_on channel=0 note=55 velocity=80 time=1
note_on channel=0 note=55 velocity=0 time=239
note_on channel=0 note=54 velocity=80 time=1
note_on channel=0 note=54 velocity=0 time=239
note_on channel=0 note=51 velocity=80 time=1
note_on channel=0 note=51 velocity=0 time=719
note_on channel=0 note=55 velocity=80 time=1
note_on channel=0 note=55 velocity=0 time=239
note_on channel=0 note=57 velocity=80 time=1
note_on channel=0 note=57 velocity=0 time=239
note_on channel=0 note=58 velocity=80 time=1
note_on channel=0 note=58 velocity=0 time=239
note_on channel=0 note=60 velocity=80 time=1
note_on channel=0 note=60 velocity=0 time=239
note_on channel=0 note=62 velocity=80 time=1
note_on channel=0 note=62 velocity=0 time=239
note_on channel=0 note=66 velocity=80 time=1
note_on channel=0 note=66 velocity=0 time=719
note_on channel=0 note=63 velocity=80 time=1
note_on channel=0 note=63 velocity=0 time=239
note_on channel=0 note=60 velocity=80 time=1
note_on channel=0 note=60 velocity=0 time=239
note_on channel=0 note=58 velocity=80 time=1
note_on channel=0 note=58 velocity=0 time=239
note_on channel=0 note=57 velocity=80 time=1
note_on channel=0 note=57 velocity=0 time=239
note_on channel=0 note=55 velocity=80 time=1
note_on channel=0 note=55 velocity=0 time=239
note_on channel=0 note=51 velocity=80 time=1
note_on channel=0 note=51 velocity=0 time=479
note_on channel=0 note=53 velocity=80 time=1
note_on channel=0 note=53 velocity=0 time=479
note_on channel=0 note=54 velocity=80 time=1
note_on channel=0 note=54 velocity=0 time=479
note_on channel=0 note=55 velocity=80 time=1
note_on channel=0 note=55 velocity=0 time=479
note_on channel=0 note=56 velocity=80 time=1
note_on channel=0 note=56 velocity=0 time=479
note_on channel=0 note=57 velocity=80 time=1
note_on channel=0 note=57 velocity=0 time=479
note_on channel=0 note=54 velocity=80 time=1
note_on channel=0 note=54 velocity=0 time=479
note_on channel=0 note=57 velocity=80 time=1
note_on channel=0 note=57 velocity=0 time=239
note_on channel=0 note=55 velocity=80 time=1
note_on channel=0 note=55 velocity=0 time=239
note_on channel=0 note=57 velocity=80 time=1
note_on channel=0 note=57 velocity=0 time=239
note_on channel=0 note=58 velocity=80 time=1
note_on channel=0 note=58 velocity=0 time=239
note_on channel=0 note=60 velocity=80 time=1
note_on channel=0 note=60 velocity=0 time=479
note_on channel=0 note=57 velocity=80 time=1
note_on channel=0 note=57 velocity=0 time=479
note_on channel=0 note=60 velocity=80 time=1
note_on channel=0 note=60 velocity=0 time=239
note_on channel=0 note=58 velocity=80 time=1
note_on channel=0 note=58 velocity=0 time=239
note_on channel=0 note=60 velocity=80 time=1
note_on channel=0 note=60 velocity=0 time=239
note_on channel=0 note=62 velocity=80 time=1
note_on channel=0 note=62 velocity=0 time=239
note_on channel=0 note=63 velocity=80 time=1
note_on channel=0 note=63 velocity=0 time=479
note_on channel=0 note=60 velocity=80 time=1
note_on channel=0 note=60 velocity=0 time=479
note_on channel=0 note=63 velocity=80 time=1
note_on channel=0 note=63 velocity=0 time=239
note_on channel=0 note=62 velocity=80 time=1
note_on channel=0 note=62 velocity=0 time=239
note_on channel=0 note=63 velocity=80 time=1
note_on channel=0 note=63 velocity=0 time=239
note_on channel=0 note=65 velocity=80 time=1
note_on channel=0 note=65 velocity=0 time=239
note_on channel=0 note=67 velocity=49 time=1
note_on channel=0 note=67 velocity=0 time=479
note_on channel=0 note=50 velocity=49 time=1441
note_on channel=0 note=50 velocity=0 time=959
note_on channel=0 note=55 velocity=49 time=1
note_on channel=0 note=55 velocity=0 time=719
note_on channel=0 note=57 velocity=49 time=1
note_on channel=0 note=57 velocity=0 time=239
note_on channel=0 note=58 velocity=49 time=1
note_on channel=0 note=58 velocity=0 time=719
note_on channel=0 note=55 velocity=49 time=1
note_on channel=0 note=55 velocity=0 time=239
note_on channel=0 note=54 velocity=49 time=1
note_on channel=0 note=54 velocity=0 time=719
note_on channel=0 note=55 velocity=49 time=1
note_on channel=0 note=55 velocity=0 time=119
note_on channel=0 note=57 velocity=49 time=1
note_on channel=0 note=57 velocity=0 time=119
note_on channel=0 note=51 velocity=49 time=1
note_on channel=0 note=51 velocity=0 time=959
note_on channel=0 note=57 velocity=51 time=1
note_on channel=0 note=57 velocity=0 time=719
note_on channel=0 note=58 velocity=53 time=1
note_on channel=0 note=58 velocity=0 time=239
note_on channel=0 note=60 velocity=54 time=1
note_on channel=0 note=60 velocity=0 time=719
note_on channel=0 note=57 velocity=55 time=1
note_on channel=0 note=57 velocity=0 time=239
note_on channel=0 note=55 velocity=56 time=1
note_on channel=0 note=55 velocity=0 time=719
note_on channel=0 note=57 velocity=58 time=1
note_on channel=0 note=57 velocity=0 time=119
note_on channel=0 note=58 velocity=58 time=1
note_on channel=0 note=58 velocity=0 time=119
note_on channel=0 note=54 velocity=59 time=1
note_on channel=0 note=54 velocity=0 time=959
note_on channel=0 note=58 velocity=61 time=1
note_on channel=0 note=58 velocity=0 time=719
note_on channel=0 note=60 velocity=63 time=1
note_on channel=0 note=60 velocity=0 time=239
note_on channel=0 note=63 velocity=64 time=1
note_on channel=0 note=63 velocity=0 time=239
note_on channel=0 note=62 velocity=67 time=1
note_on channel=0 note=62 velocity=0 time=239
note_on channel=0 note=58 velocity=70 time=1
note_on channel=0 note=58 velocity=0 time=239
note_on channel=0 note=55 velocity=73 time=1
note_on channel=0 note=55 velocity=0 time=239
note_on channel=0 note=55 velocity=76 time=1
note_on channel=0 note=55 velocity=0 time=239
note_on channel=0 note=54 velocity=80 time=1
note_on channel=0 note=54 velocity=0 time=239
note_on channel=0 note=50 velocity=83 time=1
note_on channel=0 note=50 velocity=0 time=239
note_on channel=0 note=46 velocity=86 time=1
note_on channel=0 note=46 velocity=0 time=239
note_on channel=0 note=43 velocity=89 time=1
note_on channel=0 note=43 velocity=0 time=239
note_on channel=0 note=38 velocity=92 time=1
note_on channel=0 note=38 velocity=0 time=239
note_on channel=0 note=43 velocity=96 time=1
note_on channel=0 note=43 velocity=0 time=239
note_on channel=0 note=42 velocity=96 time=1
note_on channel=0 note=42 velocity=0 time=239
note_on channel=0 note=43 velocity=96 time=1
note_on channel=0 note=43 velocity=0 time=239
note_on channel=0 note=45 velocity=96 time=1
note_on channel=0 note=45 velocity=0 time=239
note_on channel=0 note=46 velocity=96 time=1
note_on channel=0 note=46 velocity=0 time=239
note_on channel=0 note=43 velocity=96 time=1
note_on channel=0 note=43 velocity=0 time=239
note_on channel=0 note=46 velocity=96 time=1
note_on channel=0 note=46 velocity=0 time=239
note_on channel=0 note=41 velocity=96 time=1
note_on channel=0 note=41 velocity=0 time=239
note_on channel=0 note=46 velocity=96 time=1
note_on channel=0 note=46 velocity=0 time=239
note_on channel=0 note=45 velocity=96 time=1
note_on channel=0 note=45 velocity=0 time=239
note_on channel=0 note=46 velocity=96 time=1
note_on channel=0 note=46 velocity=0 time=239
note_on channel=0 note=48 velocity=96 time=1
note_on channel=0 note=48 velocity=0 time=239
note_on channel=0 note=50 velocity=96 time=1
note_on channel=0 note=50 velocity=0 time=239
note_on channel=0 note=46 velocity=96 time=1
note_on channel=0 note=46 velocity=0 time=239
note_on channel=0 note=48 velocity=96 time=1
note_on channel=0 note=48 velocity=0 time=239
note_on channel=0 note=45 velocity=96 time=1
note_on channel=0 note=45 velocity=0 time=239
note_on channel=0 note=48 velocity=96 time=1
note_on channel=0 note=48 velocity=0 time=239
note_on channel=0 note=46 velocity=96 time=1
note_on channel=0 note=46 velocity=0 time=239
note_on channel=0 note=48 velocity=96 time=1
note_on channel=0 note=48 velocity=0 time=239
note_on channel=0 note=50 velocity=96 time=1
note_on channel=0 note=50 velocity=0 time=239
note_on channel=0 note=51 velocity=96 time=1
note_on channel=0 note=51 velocity=0 time=239
note_on channel=0 note=48 velocity=96 time=1
note_on channel=0 note=48 velocity=0 time=239
note_on channel=0 note=51 velocity=96 time=1
note_on channel=0 note=51 velocity=0 time=239
note_on channel=0 note=46 velocity=96 time=1
note_on channel=0 note=46 velocity=0 time=239
note_on channel=0 note=51 velocity=96 time=1
note_on channel=0 note=51 velocity=0 time=239
note_on channel=0 note=50 velocity=96 time=1
note_on channel=0 note=50 velocity=0 time=239
note_on channel=0 note=51 velocity=96 time=1
note_on channel=0 note=51 velocity=0 time=239
note_on channel=0 note=54 velocity=96 time=1
note_on channel=0 note=54 velocity=0 time=239
note_on channel=0 note=55 velocity=96 time=1
note_on channel=0 note=55 velocity=0 time=239
note_on channel=0 note=57 velocity=96 time=1
note_on channel=0 note=57 velocity=0 time=239
note_on channel=0 note=50 velocity=96 time=1
note_on channel=0 note=58 velocity=96 time=0
note_on channel=0 note=50 velocity=0 time=1919
note_on channel=0 note=58 velocity=0 time=0
note_on channel=0 note=48 velocity=96 time=1
note_on channel=0 note=57 velocity=96 time=0
note_on channel=0 note=48 velocity=0 time=1919
note_on channel=0 note=57 velocity=0 time=0
note_on channel=0 note=46 velocity=96 time=1
note_on channel=0 note=55 velocity=96 time=0
note_on channel=0 note=46 velocity=0 time=1919
note_on channel=0 note=55 velocity=0 time=0
note_on channel=0 note=45 velocity=96 time=1
note_on channel=0 note=54 velocity=96 time=0
note_on channel=0 note=45 velocity=0 time=1919
note_on channel=0 note=54 velocity=0 time=0
note_on channel=0 note=37 velocity=96 time=481
note_on channel=0 note=49 velocity=96 time=0
note_on channel=0 note=37 velocity=0 time=719
note_on channel=0 note=49 velocity=0 time=0
note_on channel=0 note=39 velocity=96 time=1
note_on channel=0 note=51 velocity=96 time=0
note_on channel=0 note=39 velocity=0 time=479
note_on channel=0 note=51 velocity=0 time=0
note_on channel=0 note=42 velocity=96 time=1
note_on channel=0 note=54 velocity=96 time=0
note_on channel=0 note=42 velocity=0 time=479
note_on channel=0 note=54 velocity=0 time=0
note_on channel=0 note=43 velocity=96 time=1
note_on channel=0 note=55 velocity=96 time=0
note_on channel=0 note=43 velocity=0 time=479
note_on channel=0 note=55 velocity=0 time=0
note_on channel=0 note=45 velocity=96 time=1
note_on channel=0 note=57 velocity=96 time=0
note_on channel=0 note=45 velocity=0 time=479
note_on channel=0 note=57 velocity=0 time=0
note_on channel=0 note=46 velocity=96 time=1
note_on channel=0 note=58 velocity=96 time=0
note_on channel=0 note=46 velocity=0 time=479
note_on channel=0 note=58 velocity=0 time=0
note_on channel=0 note=45 velocity=96 time=1
note_on channel=0 note=57 velocity=96 time=0
note_on channel=0 note=45 velocity=0 time=239
note_on channel=0 note=57 velocity=0 time=0
note_on channel=0 note=38 velocity=96 time=1
note_on channel=0 note=50 velocity=96 time=0
note_on channel=0 note=38 velocity=0 time=479
note_on channel=0 note=50 velocity=0 time=0
note_on channel=0 note=39 velocity=96 time=1
note_on channel=0 note=51 velocity=96 time=0
note_on channel=0 note=39 velocity=0 time=719
note_on channel=0 note=51 velocity=0 time=0
note_on channel=0 note=42 velocity=96 time=1
note_on channel=0 note=54 velocity=96 time=0
note_on channel=0 note=42 velocity=0 time=479
note_on channel=0 note=54 velocity=0 time=0
note_on channel=0 note=43 velocity=96 time=1
note_on channel=0 note=55 velocity=96 time=0
note_on channel=0 note=43 velocity=0 time=479
note_on channel=0 note=55 velocity=0 time=0
note_on channel=0 note=45 velocity=96 time=1
note_on channel=0 note=57 velocity=96 time=0
note_on channel=0 note=45 velocity=0 time=479
note_on channel=0 note=57 velocity=0 time=0
note_on channel=0 note=46 velocity=96 time=1
note_on channel=0 note=58 velocity=96 time=0
note_on channel=0 note=46 velocity=0 time=239
note_on channel=0 note=58 velocity=0 time=0
note_on channel=0 note=48 velocity=96 time=1
note_on channel=0 note=60 velocity=96 time=0
note_on channel=0 note=48 velocity=0 time=719
note_on channel=0 note=60 velocity=0 time=0
note_on channel=0 note=50 velocity=96 time=1
note_on channel=0 note=62 velocity=96 time=0
note_on channel=0 note=50 velocity=0 time=719
note_on channel=0 note=62 velocity=0 time=0
note_on channel=0 note=51 velocity=96 time=1
note_on channel=0 note=63 velocity=96 time=0
note_on channel=0 note=51 velocity=0 time=719
note_on channel=0 note=63 velocity=0 time=0
note_on channel=0 note=54 velocity=96 time=1
note_on channel=0 note=66 velocity=96 time=0
note_on channel=0 note=54 velocity=0 time=959
note_on channel=0 note=66 velocity=0 time=0
note_on channel=0 note=58 velocity=96 time=1
note_on channel=0 note=58 velocity=0 time=479
note_on channel=0 note=57 velocity=96 time=1
note_on channel=0 note=57 velocity=0 time=479
note_on channel=0 note=55 velocity=96 time=1
note_on channel=0 note=55 velocity=0 time=479
note_on channel=0 note=54 velocity=96 time=1
note_on channel=0 note=54 velocity=0 time=479
note_on channel=0 note=50 velocity=96 time=1
note_on channel=0 note=50 velocity=0 time=239
note_on channel=0 note=55 velocity=96 time=1
note_on channel=0 note=55 velocity=0 time=719
note_on channel=0 note=50 velocity=96 time=1
note_on channel=0 note=50 velocity=0 time=239
note_on channel=0 note=57 velocity=96 time=1
note_on channel=0 note=57 velocity=0 time=719
note_on channel=0 note=50 velocity=96 time=1
note_on channel=0 note=50 velocity=0 time=239
note_on channel=0 note=58 velocity=96 time=1
note_on channel=0 note=58 velocity=0 time=719
note_on channel=0 note=50 velocity=96 time=1
note_on channel=0 note=50 velocity=0 time=239
note_on channel=0 note=60 velocity=96 time=1
note_on channel=0 note=60 velocity=0 time=239
note_on channel=0 note=58 velocity=96 time=1
note_on channel=0 note=58 velocity=0 time=239
note_on channel=0 note=57 velocity=96 time=1
note_on channel=0 note=57 velocity=0 time=239
note_on channel=0 note=62 velocity=96 time=1
note_on channel=0 note=62 velocity=0 time=239
note_on channel=0 note=60 velocity=96 time=1
note_on channel=0 note=60 velocity=0 time=239
note_on channel=0 note=58 velocity=96 time=1
note_on channel=0 note=58 velocity=0 time=239
note_on channel=0 note=63 velocity=96 time=1
note_on channel=0 note=63 velocity=0 time=239
note_on channel=0 note=62 velocity=96 time=1
note_on channel=0 note=62 velocity=0 time=239
note_on channel=0 note=60 velocity=96 time=1
note_on channel=0 note=60 velocity=0 time=239
note_on channel=0 note=58 velocity=96 time=1
note_on channel=0 note=58 velocity=0 time=239
note_on channel=0 note=57 velocity=96 time=1
note_on channel=0 note=57 velocity=0 time=239
note_on channel=0 note=51 velocity=96 time=1
note_on channel=0 note=51 velocity=0 time=239
note_on channel=0 note=57 velocity=96 time=1
note_on channel=0 note=57 velocity=0 time=719
note_on channel=0 note=51 velocity=96 time=1
note_on channel=0 note=51 velocity=0 time=239
note_on channel=0 note=58 velocity=96 time=1
note_on channel=0 note=58 velocity=0 time=719
note_on channel=0 note=51 velocity=96 time=1
note_on channel=0 note=51 velocity=0 time=239
note_on channel=0 note=60 velocity=96 time=1
note_on channel=0 note=60 velocity=0 time=719
note_on channel=0 note=51 velocity=96 time=1
note_on channel=0 note=51 velocity=0 time=239
note_on channel=0 note=62 velocity=96 time=1
note_on channel=0 note=62 velocity=0 time=239
note_on channel=0 note=60 velocity=96 time=1
note_on channel=0 note=60 velocity=0 time=239
note_on channel=0 note=58 velocity=96 time=1
note_on channel=0 note=58 velocity=0 time=239
note_on channel=0 note=63 velocity=96 time=1
note_on channel=0 note=63 velocity=0 time=239
note_on channel=0 note=62 velocity=96 time=1
note_on channel=0 note=62 velocity=0 time=239
note_on channel=0 note=60 velocity=96 time=1
note_on channel=0 note=60 velocity=0 time=239
note_on channel=0 note=65 velocity=96 time=1
note_on channel=0 note=65 velocity=0 time=239
note_on channel=0 note=63 velocity=96 time=1
note_on channel=0 note=63 velocity=0 time=239
note_on channel=0 note=62 velocity=96 time=1
note_on channel=0 note=62 velocity=0 time=239
note_on channel=0 note=60 velocity=96 time=1
note_on channel=0 note=60 velocity=0 time=239
note_on channel=0 note=58 velocity=96 time=1
note_on channel=0 note=58 velocity=0 time=239
note_on channel=0 note=53 velocity=96 time=1
note_on channel=0 note=53 velocity=0 time=239
note_on channel=0 note=58 velocity=96 time=1
note_on channel=0 note=58 velocity=0 time=719
note_on channel=0 note=53 velocity=96 time=1
note_on channel=0 note=53 velocity=0 time=239
note_on channel=0 note=60 velocity=96 time=1
note_on channel=0 note=60 velocity=0 time=719
note_on channel=0 note=53 velocity=96 time=1
note_on channel=0 note=53 velocity=0 time=239
note_on channel=0 note=62 velocity=96 time=1
note_on channel=0 note=62 velocity=0 time=719
note_on channel=0 note=53 velocity=96 time=1
note_on channel=0 note=53 velocity=0 time=239
note_on channel=0 note=63 velocity=96 time=1
note_on channel=0 note=63 velocity=0 time=239
note_on channel=0 note=62 velocity=96 time=1
note_on channel=0 note=62 velocity=0 time=239
note_on channel=0 note=60 velocity=96 time=1
note_on channel=0 note=60 velocity=0 time=239
note_on channel=0 note=65 velocity=96 time=1
note_on channel=0 note=65 velocity=0 time=239
note_on channel=0 note=63 velocity=96 time=1
note_on channel=0 note=63 velocity=0 time=239
note_on channel=0 note=62 velocity=96 time=1
note_on channel=0 note=62 velocity=0 time=239
note_on channel=0 note=67 velocity=96 time=1
note_on channel=0 note=67 velocity=0 time=239
note_on channel=0 note=65 velocity=96 time=1
note_on channel=0 note=65 velocity=0 time=239
note_on channel=0 note=63 velocity=96 time=1
note_on channel=0 note=63 velocity=0 time=239
note_on channel=0 note=62 velocity=96 time=1
note_on channel=0 note=62 velocity=0 time=239
note_on channel=0 note=63 velocity=96 time=1
note_on channel=0 note=63 velocity=0 time=239
note_on channel=0 note=60 velocity=96 time=1
note_on channel=0 note=60 velocity=0 time=239
note_on channel=0 note=63 velocity=96 time=1
note_on channel=0 note=63 velocity=0 time=239
note_on channel=0 note=62 velocity=96 time=1
note_on channel=0 note=62 velocity=0 time=239
note_on channel=0 note=63 velocity=96 time=1
note_on channel=0 note=63 velocity=0 time=239
note_on channel=0 note=60 velocity=96 time=1
note_on channel=0 note=60 velocity=0 time=239
note_on channel=0 note=63 velocity=96 time=1
note_on channel=0 note=63 velocity=0 time=239
note_on channel=0 note=62 velocity=96 time=1
note_on channel=0 note=62 velocity=0 time=239
note_on channel=0 note=63 velocity=96 time=1
note_on channel=0 note=63 velocity=0 time=239
note_on channel=0 note=58 velocity=96 time=1
note_on channel=0 note=58 velocity=0 time=239
note_on channel=0 note=63 velocity=96 time=1
note_on channel=0 note=63 velocity=0 time=239
note_on channel=0 note=60 velocity=96 time=1
note_on channel=0 note=60 velocity=0 time=239
note_on channel=0 note=63 velocity=96 time=1
note_on channel=0 note=63 velocity=0 time=239
note_on channel=0 note=58 velocity=96 time=1
note_on channel=0 note=58 velocity=0 time=239
note_on channel=0 note=63 velocity=96 time=1
note_on channel=0 note=63 velocity=0 time=239
note_on channel=0 note=60 velocity=96 time=1
note_on channel=0 note=60 velocity=0 time=239
note_on channel=0 note=63 velocity=96 time=1
note_on channel=0 note=63 velocity=0 time=239
note_on channel=0 note=57 velocity=96 time=1
note_on channel=0 note=57 velocity=0 time=239
note_on channel=0 note=63 velocity=96 time=1
note_on channel=0 note=63 velocity=0 time=239
note_on channel=0 note=60 velocity=96 time=1
note_on channel=0 note=60 velocity=0 time=239
note_on channel=0 note=63 velocity=96 time=1
note_on channel=0 note=63 velocity=0 time=239
note_on channel=0 note=57 velocity=96 time=1
note_on channel=0 note=57 velocity=0 time=239
note_on channel=0 note=63 velocity=96 time=1
note_on channel=0 note=63 velocity=0 time=239
note_on channel=0 note=60 velocity=96 time=1
note_on channel=0 note=60 velocity=0 time=239
note_on channel=0 note=63 velocity=96 time=1
note_on channel=0 note=63 velocity=0 time=239
note_on channel=0 note=62 velocity=96 time=1
note_on channel=0 note=62 velocity=0 time=239
note_on channel=0 note=60 velocity=96 time=1
note_on channel=0 note=60 velocity=0 time=239
note_on channel=0 note=58 velocity=96 time=1
note_on channel=0 note=58 velocity=0 time=239
note_on channel=0 note=60 velocity=96 time=1
note_on channel=0 note=60 velocity=0 time=239
note_on channel=0 note=58 velocity=96 time=1
note_on channel=0 note=58 velocity=0 time=239
note_on channel=0 note=57 velocity=96 time=1
note_on channel=0 note=57 velocity=0 time=239
note_on channel=0 note=55 velocity=96 time=1
note_on channel=0 note=55 velocity=0 time=239
note_on channel=0 note=57 velocity=96 time=1
note_on channel=0 note=57 velocity=0 time=239
note_on channel=0 note=55 velocity=96 time=1
note_on channel=0 note=55 velocity=0 time=239
note_on channel=0 note=54 velocity=96 time=1
note_on channel=0 note=54 velocity=0 time=239
note_on channel=0 note=50 velocity=96 time=241
note_on channel=0 note=50 velocity=0 time=239
note_on channel=0 note=55 velocity=96 time=1
note_on channel=0 note=55 velocity=0 time=239
note_on channel=0 note=50 velocity=96 time=1
note_on channel=0 note=50 velocity=0 time=239
note_on channel=0 note=57 velocity=96 time=1
note_on channel=0 note=57 velocity=0 time=239
note_on channel=0 note=50 velocity=96 time=961
note_on channel=0 note=50 velocity=0 time=239
note_on channel=0 note=57 velocity=96 time=1
note_on channel=0 note=57 velocity=0 time=239
note_on channel=0 note=50 velocity=96 time=1
note_on channel=0 note=50 velocity=0 time=239
note_on channel=0 note=58 velocity=96 time=1
note_on channel=0 note=58 velocity=0 time=239
note_on channel=0 note=50 velocity=96 time=961
note_on channel=0 note=50 velocity=0 time=239
note_on channel=0 note=58 velocity=96 time=1
note_on channel=0 note=58 velocity=0 time=239
note_on channel=0 note=50 velocity=96 time=1
note_on channel=0 note=50 velocity=0 time=239
note_on channel=0 note=60 velocity=96 time=1
note_on channel=0 note=60 velocity=0 time=239
note_on channel=0 note=55 velocity=96 time=961
note_on channel=0 note=55 velocity=0 time=239
note_on channel=0 note=57 velocity=96 time=1
note_on channel=0 note=57 velocity=0 time=239
note_on channel=0 note=58 velocity=96 time=1
note_on channel=0 note=58 velocity=0 time=239
note_on channel=0 note=60 velocity=96 time=1
note_on channel=0 note=60 velocity=0 time=239
note_on channel=0 note=58 velocity=96 time=1
note_on channel=0 note=58 velocity=0 time=239
note_on channel=0 note=60 velocity=96 time=1
note_on channel=0 note=60 velocity=0 time=239
note_on channel=0 note=62 velocity=96 time=1
note_on channel=0 note=62 velocity=0 time=239
note_on channel=0 note=63 velocity=96 time=1
note_on channel=0 note=63 velocity=0 time=239
note_on channel=0 note=62 velocity=96 time=1
note_on channel=0 note=62 velocity=0 time=239
note_on channel=0 note=63 velocity=96 time=1
note_on channel=0 note=63 velocity=0 time=239
note_on channel=0 note=66 velocity=96 time=1
note_on channel=0 note=66 velocity=0 time=239
note_on channel=0 note=67 velocity=96 time=1
note_on channel=0 note=67 velocity=0 time=239
note_on channel=0 note=69 velocity=96 time=1
note_on channel=0 note=69 velocity=0 time=239
MetaMessage('end_of_track', time=1)
